<svg height="400pt" viewBox="0 -59 400 400" width="400pt" xmlns="http://www.w3.org/2000/svg"><path d="m329.5 30h-89.5v-20.199219c.101562-5.300781-4.199219-9.699219-9.5-9.800781-.101562 0-.199219 0-.300781 0h-61.199219c-5.398438-.0976562-9.898438 4.203125-10 9.703125v.097656 20.199219h-89.300781c-5.5 0-10 4.5-10 10s4.5 10 10 10h60.601562c-24.199219 21-39.300781 50.800781-39.300781 83.703125v67.296875h-18.199219c-5.402343 0-9.800781 4.402344-9.800781 9.800781v.199219 61.203125c-.101562 5.296875 4.199219 9.699219 9.5 9.796875h.300781 61.199219c5.398438.101562 9.898438-4.296875 10-9.699219v-.097656-61.203125c0-5.5-4.5-10-10-10h-23v-67.296875c.101562-33.101563 18.601562-63.300781 48-78.5v15.796875c0 5.5 4.398438 10 9.898438 10h61.300781c5.402343 0 9.800781-4.398438 9.800781-9.796875 0-.101563 0-.101563 0-.203125v-15.796875c29.398438 15.097656 48 45.398437 48 78.5v67.296875h-22.800781c-5.597657 0-10.097657 4.402344-10.199219 10v61.203125c.101562 5.5 4.699219 9.898437 10.199219 9.796875h61.199219c5.203124.101562 9.5-4.097656 9.601562-9.398438 0-.101562 0-.300781 0-.398437v-61.203125c.199219-5.296875-4-9.796875-9.300781-10-.097657 0-.199219 0-.300781 0h-18.398438v-67.296875c0-33-14.800781-62.703125-39-83.703125h60.5c5.5 0 10-4.5 10-10s-4.5-10-10-10zm-205.5 232h-41v-41h41zm192 0h-41v-41h41zm-137-201v-41h41v16.601562 6.898438 17.5zm0 0" fill="#000"/><g fill="#000"><path d="m39.101562 80.300781c-21.5 0-39.101562-17.898437-39.101562-39.898437s17.5-39.902344 39.101562-39.902344c21.597657 0 39.097657 17.902344 39.097657 39.902344s-17.597657 39.898437-39.097657 39.898437zm0-59.800781c-10.5 0-19.101562 8.902344-19.101562 19.902344s8.601562 19.898437 19.101562 19.898437 19.097657-8.898437 19.097657-19.898437-8.597657-19.902344-19.097657-19.902344zm0 0"/><path d="m360.101562 79.5c-22 0-39.902343-17.5-39.902343-39.097656 0-21.601563 17.902343-39.101563 39.902343-39.101563s39.898438 17.5 39.898438 39.101563c0 21.597656-17.898438 39.097656-39.898438 39.097656zm0-58.199219c-11 0-19.902343 8.601563-19.902343 19.101563s8.902343 19.097656 19.902343 19.097656 19.898438-8.597656 19.898438-19.097656-8.898438-19.101563-19.898438-19.101563zm0 0"/></g></svg>