<svg id="Capa_1" enable-background="new 0 0 512 512" height="512" viewBox="0 0 512 512" width="512" xmlns="http://www.w3.org/2000/svg"><g><g><path d="m259.24 10v129.488c0 20.226 16.507 36.623 36.869 36.623 20.362 0 36.869-16.397 36.869-36.623v-25.265c0 20.226 16.507 36.623 36.869 36.623 20.362 0 36.869-16.397 36.869-36.623v-104.223z" fill="#e2c4ff"/></g><g><path d="m406.715 0h-301.43c-5.522 0-10 4.478-10 10v265.095c0 30.561 25.039 55.424 55.816 55.424h65.657v19.147c0 22.644-5.125 55.535-14.92 74.587-4.886 9.503-7.138 20.21-6.513 30.964 1.778 30.614 27.362 55.536 58.244 56.735.825.032 1.646.048 2.467.048 15.875 0 30.798-5.984 42.249-17 11.925-11.47 18.491-26.862 18.491-43.344 0-9.146-2.011-17.935-5.978-26.124-10.105-20.863-15.559-54.661-15.559-75.87v-19.144h65.657c30.777 0 55.816-24.863 55.816-55.424v-265.094c.003-5.522-4.475-10-9.997-10zm-291.43 20h31.408v38.517c0 5.522 4.478 10 10 10s10-4.478 10-10v-38.517h21.862v101.109c0 5.522 4.478 10 10 10s10-4.478 10-10v-101.109h188.159v222.786h-281.43v-222.786zm281.43 255.095c0 19.533-16.067 35.424-35.816 35.424h-75.657c-5.522 0-10 4.478-10 10v29.144c0 24.021 6.031 60.79 17.559 84.589 2.64 5.448 3.978 11.305 3.978 17.405 0 10.991-4.388 21.266-12.355 28.93-8.088 7.78-18.791 11.808-30.074 11.382-20.712-.805-37.867-17.457-39.055-37.911-.418-7.188 1.08-14.332 4.333-20.659 11.771-22.896 17.133-59.454 17.133-83.731v-29.147c0-5.522-4.478-10-10-10h-75.657c-19.749 0-35.816-15.891-35.816-35.424v-12.309h281.43v12.307z" fill="#020288"/></g></g></svg>