<?xml version="1.0" ?><!DOCTYPE svg  PUBLIC '-//W3C//DTD SVG 1.1//EN'  'http://www.w3.org/Graphics/SVG/1.1/DTD/svg11.dtd'><svg width="32px" height="32px" viewBox="0 0 32 32" enable-background="new 0 0 32 32" version="1.1" xml:space="preserve" xmlns="http://www.w3.org/2000/svg" xmlns:xlink="http://www.w3.org/1999/xlink"><g id="Home"/><g id="Print"/><g id="Mail"/><g id="Camera"/><g id="Video"/><g id="Film"/><g id="Message"/><g id="Telephone"/><g id="User"/><g id="File"/><g id="Folder"/><g id="Map"/><g id="Download"/><g id="Upload"/><g id="Video_Recorder"/><g id="Schedule"><path d="M24,3h-1V2c0-0.5-0.5-1-1-1s-1,0.5-1,1v1h-5h-5V2c0-0.5-0.5-1-1-1S9,1.5,9,2v1H8c-3.9,0-7,3.1-7,7v4v10   c0,3.9,3.1,7,7,7h8h8c3.9,0,7-3.1,7-7V14v-4C31,6.1,27.9,3,24,3z" fill="#FFC10A"/><path d="M24,3h-8H8c-3.9,0-7,3.1-7,7v4c0,0.5,0.5,1,1,1h14h14c0.5,0,1-0.5,1-1v-4C31,6.1,27.9,3,24,3z" fill="#F44236"/><g><path d="M11,2v7c0,0.5-0.5,1-1,1S9,9.5,9,9V2c0-0.5,0.5-1,1-1S11,1.5,11,2z" fill="#673AB7"/></g><g><path d="M23,2v7c0,0.5-0.5,1-1,1s-1-0.5-1-1V2c0-0.5,0.5-1,1-1S23,1.5,23,2z" fill="#673AB7"/></g></g><g id="Cart"/><g id="Setting"/><g id="Search"/><g id="Pencils"/><g id="Group"/><g id="Record"/><g id="Headphone"/><g id="Music_Player"/><g id="Sound_On"/><g id="Sound_Off"/><g id="Lock"/><g id="Lock_open"/><g id="Love"/><g id="Favorite"/><g id="Film_1_"/><g id="Music"/><g id="Puzzle"/><g id="Turn_Off"/><g id="Book"/><g id="Save"/><g id="Reload"/><g id="Trash"/><g id="Tag"/><g id="Link"/><g id="Like"/><g id="Bad"/><g id="Gallery"/><g id="Add"/><g id="Close"/><g id="Forward"/><g id="Back"/><g id="Buy"/><g id="Mac"/><g id="Laptop"/></svg>