<svg height="480pt" viewBox="0 -28 480 480" width="480pt" xmlns="http://www.w3.org/2000/svg"><path d="m60 404v-324c-.007812-22.09375 17.90625-40.007812 40-40h368.699219c-4.53125-17.667969-20.460938-30.015625-38.699219-30h-380c-22.09375-.007812-40.007812 17.90625-40 40v324c-.007812 22.09375 17.90625 40.007812 40 40h11.300781c-.894531-3.257812-1.332031-6.621094-1.300781-10zm0 0" fill="none"/><g fill="#000"><path d="m430 0h-380c-27.609375.0117188-49.9882812 22.390625-50 50v324c.0117188 27.609375 22.390625 49.988281 50 50h380c27.609375-.011719 49.988281-22.390625 50-50v-324c-.011719-27.609375-22.390625-49.9882812-50-50zm-380 20h380c16.546875.046875 29.953125 13.453125 30 30v41.699219h-440v-41.699219c.046875-16.546875 13.453125-29.953125 30-30zm380 384h-380c-16.546875-.046875-29.953125-13.453125-30-30v-262.300781h440v262.300781c-.046875 16.546875-13.453125 29.953125-30 30zm0 0"/><path d="m405.398438 281.101562h-126.5c-5.519532 0-10 4.476563-10 10 0 5.519532 4.480468 10 10 10h126.5c5.523437 0 10-4.480468 10-10 0-5.523437-4.476563-10-10-10zm0 0"/><path d="m405.398438 339.300781h-126.5c-5.519532 0-10 4.476563-10 10 0 5.523438 4.480468 10 10 10h126.5c5.523437 0 10-4.476562 10-10 0-5.523437-4.476563-10-10-10zm0 0"/><path d="m405.398438 164.699219h-126.5c-5.519532 0-10 4.476562-10 10 0 5.523437 4.480468 10 10 10h126.5c5.523437 0 10-4.476563 10-10 0-5.523438-4.476563-10-10-10zm0 0"/><path d="m405.398438 222.898438h-126.5c-5.519532 0-10 4.480468-10 10 0 5.523437 4.480468 10 10 10h126.5c5.523437 0 10-4.476563 10-10 0-5.519532-4.476563-10-10-10zm0 0"/></g><path d="m143.398438 258c28.527343.027344 51.675781-23.074219 51.703124-51.601562.027344-28.523438-23.074218-51.671876-51.601562-51.699219-28.527344-.027344-51.671875 23.074219-51.699219 51.601562.035157 28.496094 23.101563 51.605469 51.597657 51.699219zm0-83.300781c12.8125-.019531 24.371093 7.683593 29.28125 19.515625 4.914062 11.832031 2.207031 25.457031-6.851563 34.515625-9.054687 9.058593-22.683594 11.761719-34.511719 6.851562-11.832031-4.914062-19.535156-16.472656-19.515625-29.28125.046875-17.433593 14.167969-31.550781 31.597657-31.601562zm0 0" fill="#000"/><path d="m143.398438 277.101562c-21.148438-.136718-41.441407 8.347657-56.199219 23.5-15 15.296876-23.199219 36.097657-23.199219 58.699219.015625 5.515625 4.484375 9.984375 10 10h138.898438c5.519531-.015625 9.984374-4.484375 10-10 0-22.601562-8.199219-43.402343-23.199219-58.699219-14.796875-15.15625-35.121094-23.640624-56.300781-23.5zm-58.699219 72.199219c1.714843-13.074219 7.605469-25.246093 16.800781-34.699219 11.066406-11.199218 26.15625-17.5 41.898438-17.5 15.746093 0 30.835937 6.300782 41.902343 17.5 9.175781 9.464844 15.066407 21.628907 16.800781 34.699219zm0 0" fill="#000"/></svg>