<svg id="Layer_1" enable-background="new 0 0 512.001 512.001" height="512" viewBox="0 0 512.001 512.001" width="512" xmlns="http://www.w3.org/2000/svg"><g><path clip-rule="evenodd" d="m311.033 333.001c0-20.491 2.941-26.562 32.531-65.373 54.987-70.488 2.787-177.518-87.533-176.626-90.312-.878-142.527 106.131-87.528 176.627 29.589 38.81 32.529 44.881 32.529 65.372z" fill="#fff69b" fill-rule="evenodd"/><g fill="#020288"><path d="m311.033 323.001h-110c-5.523 0-10 4.477-10 10v66c0 17.645 14.355 32 32 32h23v71c0 5.523 4.477 10 10 10s10-4.477 10-10v-71h23c17.645 0 32-14.355 32-32v-66c0-5.523-4.477-10-10-10zm-10 20v24h-90v-24zm-12 68h-66c-6.617 0-12-5.383-12-12v-12h90v12c0 6.617-5.384 12-12 12z"/><path d="m256.033 151.001c-24.04 0-46.641 9.362-63.64 26.361-3.905 3.905-3.905 10.237 0 14.142s10.237 3.905 14.142 0c26.055-27.156 72.94-27.155 98.994.001 1.953 1.952 4.512 2.928 7.071 2.928 8.68.154 13.409-10.92 7.071-17.071-16.997-16.999-39.598-26.361-63.638-26.361z"/><path d="m284.317 222.716c8.692.152 13.402-10.922 7.071-17.071-18.611-19.395-52.1-19.396-70.711.001-9.031 9.679 4.452 23.18 14.143 14.142 5.666-5.666 13.199-8.787 21.213-8.787s15.547 3.121 21.213 8.787c1.952 1.952 4.512 2.928 7.071 2.928z"/><path d="m246.029 241.001c0 5.526 4.482 10.005 10.008 10 13.25-.491 13.239-19.514-.008-20-5.523 0-10 4.477-10 10z"/><path d="m256.033 56c5.523 0 10-4.477 10-10v-36c0-5.523-4.477-10-10-10s-10 4.477-10 10v36c0 5.523 4.477 10 10 10z"/><path d="m356.533 26.929c-4.781-2.762-10.898-1.123-13.66 3.66l-18 31.178c-2.762 4.783-1.123 10.899 3.66 13.66 4.698 2.737 10.883 1.166 13.66-3.66 0 0 18-31.178 18-31.178 2.762-4.783 1.123-10.899-3.66-13.66z"/><path d="m390.276 133.502c1.696 0 3.416-.433 4.991-1.342l31.177-18c11.229-7.003 1.698-23.548-10-17.32 0 0-31.177 18-31.177 18-8.844 5.172-5.086 18.657 5.009 18.662z"/><path d="m447.034 191.001h-36c-13.241.486-13.256 19.509 0 20h36c13.24-.486 13.255-19.509 0-20z"/><path d="m426.444 287.841-31.177-18c-4.783-2.763-10.898-1.123-13.66 3.66s-1.123 10.899 3.66 13.66l31.177 18c1.575.91 3.294 1.342 4.991 1.342 10.086-.006 13.861-13.483 5.009-18.662z"/><path d="m169.192 30.589c-7.004-11.229-23.546-1.699-17.32 10 0 0 18 31.178 18 31.178 7.047 11.255 23.54 1.655 17.32-10 .001 0-18-31.178-18-31.178z"/><path d="m126.798 114.84-31.177-18c-4.781-2.76-10.898-1.123-13.66 3.66s-1.123 10.899 3.66 13.66l31.177 18c1.575.91 3.294 1.342 4.991 1.342 10.086-.006 13.862-13.482 5.009-18.662z"/><path d="m111.032 201.001c0-5.523-4.477-10-10-10h-36c-5.523 0-10 4.477-10 10s4.477 10 10 10h36c5.523 0 10-4.477 10-10z"/><path d="m116.798 269.841-31.177 18c-11.257 7.043-1.646 23.545 10 17.32 0 0 31.177-18 31.177-18 11.229-7.003 1.699-23.547-10-17.32z"/></g></g></svg>