<svg height="400pt" viewBox="-8 0 399 400" width="400pt" xmlns="http://www.w3.org/2000/svg"><g fill="none"><path d="m118.726562 220c-50.855468-39.652344-78.054687-77.972656-64.980468-97.808594 12.769531-19.378906 60.679687-16.140625 120.972656 4.78125 9.929688-50.617187 27.714844-86.875 48.613281-95.167968-9.210937-13.921876-19.703125-21.804688-30.835937-21.804688-24.804688 0-46.421875 39.101562-57.777344 96.972656-60.292969-20.921875-108.199219-24.160156-120.972656-4.78125-13.074219 19.835938 14.125 58.15625 64.980468 97.808594-50.855468 39.652344-78.054687 77.972656-64.980468 97.808594 5.808594 8.820312 18.914062 12.9375 37.132812 12.855468-3.976562-21.085937 22.550782-55.347656 67.847656-90.664062zm0 0"/><path d="m290.269531 126.972656c32.859375-11.398437 62.019531-17.535156 83.839844-17.636718-.46875-2.550782-1.441406-4.980469-2.863281-7.144532-10.355469-15.714844-43.816406-16.554687-88.25-5.15625 2.742187 9.257813 5.183594 19.277344 7.273437 29.9375zm0 0"/><path d="m174.71875 313.027344c-11.398438 3.957031-22.363281 7.277344-32.726562 9.9375 12.152343 41.007812 30.265624 67.035156 50.503906 67.035156 3.140625-.011719 6.25-.621094 9.160156-1.800781-11.304688-17.089844-20.679688-43.277344-26.9375-75.171875zm0 0"/></g><path d="m192.496094 400c-15.761719 0-38.320313-10.816406-56.292969-62.355469-12.871094-36.917969-19.960937-85.800781-19.960937-137.644531s7.089843-100.726562 19.960937-137.644531c17.972656-51.539063 40.53125-62.355469 56.292969-62.355469 15.757812 0 38.316406 10.816406 56.289062 62.355469 12.871094 36.917969 19.960938 85.800781 19.960938 137.644531s-7.089844 100.726562-19.960938 137.644531c-17.972656 51.539063-40.53125 62.355469-56.289062 62.355469zm0-380c-12.738282 0-26.71875 18.300781-37.402344 48.941406-12.15625 34.859375-18.851562 81.398438-18.851562 131.058594s6.695312 96.199219 18.847656 131.058594c10.6875 30.640625 24.667968 48.941406 37.40625 48.941406 12.734375 0 26.71875-18.300781 37.398437-48.941406 12.15625-34.855469 18.847657-81.402344 18.847657-131.058594s-6.691407-96.199219-18.847657-131.058594c-10.679687-30.640625-24.664062-48.941406-37.398437-48.941406zm0 0" fill="#000"/><path d="m333.808594 209.917969c-3.703125-3.308594-7.558594-6.613281-11.566406-9.917969 3.996093-3.300781 7.851562-6.609375 11.566406-9.917969 19.304687-17.246093 43.539062-42.726562 49.371094-66.171875 3.25-13.070312-.15625-22.019531-3.582032-27.222656-11.710937-17.765625-41.769531-22-86.9375-12.222656-30.136718 6.519531-64.722656 18.761718-100.164062 35.300781-35.445313-16.535156-70.027344-28.777344-100.167969-35.300781-45.164063-9.773438-75.226563-5.546875-86.933594 12.222656-3.429687 5.199219-6.835937 14.152344-3.582031 27.222656 5.828125 23.445313 30.066406 48.925782 49.371094 66.171875 3.703125 3.308594 7.554687 6.613281 11.5625 9.917969-3.996094 3.300781-7.851563 6.609375-11.5625 9.917969-19.304688 17.246093-43.542969 42.726562-49.371094 66.171875-3.253906 13.070312.152344 22.019531 3.582031 27.222656 7.597657 11.53125 22.925781 17.359375 45.097657 17.359375 11.992187 0 25.988281-1.707031 41.84375-5.136719 30.136718-6.519531 64.71875-18.761718 100.164062-35.300781 35.441406 16.535156 70.027344 28.777344 100.164062 35.300781 15.855469 3.429688 29.847657 5.136719 41.839844 5.136719 22.167969 0 37.5-5.828125 45.101563-17.359375 3.425781-5.199219 6.832031-14.152344 3.582031-27.222656-5.839844-23.445313-30.074219-48.925782-49.378906-66.171875zm1.3125-110.625c14.542968 0 24.199218 2.96875 27.773437 8.398437.664063 1.011719 2.691407 4.085938.875 11.390625-2.078125 8.363281-10.464843 26.765625-43.289062 56.085938-4.53125 4.050781-9.316407 8.101562-14.3125 12.144531-23.742188-17.726562-48.730469-33.714844-74.773438-47.84375-5.210937-2.851562-10.425781-5.617188-15.648437-8.300781 51.085937-22.234375 93.175781-31.875 119.375-31.875zm-45.402344 100.707031c-21.660156 15.820312-44.351562 30.183594-67.917969 42.988281-9.992187 5.464844-19.757812 10.507813-29.300781 15.128907-9.53125-4.628907-19.304688-9.671876-29.3125-15.128907-23.570312-12.804687-46.257812-27.167969-67.914062-42.988281 21.660156-15.820312 44.347656-30.183594 67.914062-42.988281 10-5.46875 19.769531-10.511719 29.308594-15.125 9.53125 4.628906 19.300781 9.671875 29.304687 15.125 23.566407 12.804687 46.257813 27.167969 67.917969 42.988281zm-225.210938-24.832031c-32.820312-29.320313-41.207031-47.726563-43.289062-56.085938-1.816406-7.304687.210938-10.378906.875-11.390625 3.582031-5.429687 13.226562-8.398437 27.773438-8.398437 26.199218 0 68.292968 9.640625 119.371093 31.875-5.21875 2.683593-10.433593 5.449219-15.648437 8.300781-26.039063 14.128906-51.027344 30.117188-74.769532 47.839844-4.992187-4.039063-9.78125-8.089844-14.3125-12.140625zm-42.414062 117.140625c-.664062-1.011719-2.691406-4.085938-.875-11.390625 2.082031-8.359375 10.46875-26.765625 43.289062-56.085938 4.53125-4.050781 9.320313-8.101562 14.3125-12.140625 23.742188 17.722656 48.730469 33.710938 74.769532 47.839844 5.210937 2.851562 10.429687 5.621094 15.652344 8.300781-79.441407 34.582031-137.125 38.6875-147.148438 23.476563zm340.800781 0c-3.578125 5.429687-13.222656 8.398437-27.769531 8.398437-26.203125 0-68.292969-9.640625-119.371094-31.875 5.21875-2.683593 10.433594-5.449219 15.648438-8.300781 26.039062-14.128906 51.027344-30.117188 74.765625-47.839844 5 4.042969 9.773437 8.089844 14.316406 12.140625 32.820313 29.320313 41.207031 47.726563 43.285156 56.085938 1.816407 7.304687-.210937 10.382812-.875 11.390625zm0 0" fill="#000"/></svg>