<?xml version="1.0" ?><!DOCTYPE svg  PUBLIC '-//W3C//DTD SVG 1.1//EN'  'http://www.w3.org/Graphics/SVG/1.1/DTD/svg11.dtd'><svg width="32px" height="32px" viewBox="0 0 32 32" enable-background="new 0 0 32 32" version="1.1" xml:space="preserve" xmlns="http://www.w3.org/2000/svg" xmlns:xlink="http://www.w3.org/1999/xlink"><g id="Home"/><g id="Print"/><g id="Mail"/><g id="Camera"/><g id="Video"/><g id="Film"/><g id="Message"/><g id="Telephone"/><g id="User"/><g id="File"><path d="M30,5h-7V2c0-0.5-0.5-1-1-1h-6H2C1.5,1,1,1.5,1,2v24c0,0.5,0.5,1,1,1h7v3c0,0.5,0.5,1,1,1h6h14   c0.5,0,1-0.5,1-1V6C31,5.5,30.5,5,30,5z" fill="#FFC10A"/><path d="M30,5H16h-6C9.5,5,9,5.5,9,6v24c0,0.5,0.5,1,1,1h6h14c0.5,0,1-0.5,1-1V6C31,5.5,30.5,5,30,5z" fill="#F44236"/></g><g id="Folder"/><g id="Map"/><g id="Download"/><g id="Upload"/><g id="Video_Recorder"/><g id="Schedule"/><g id="Cart"/><g id="Setting"/><g id="Search"/><g id="Pencils"/><g id="Group"/><g id="Record"/><g id="Headphone"/><g id="Music_Player"/><g id="Sound_On"/><g id="Sound_Off"/><g id="Lock"/><g id="Lock_open"/><g id="Love"/><g id="Favorite"/><g id="Film_1_"/><g id="Music"/><g id="Puzzle"/><g id="Turn_Off"/><g id="Book"/><g id="Save"/><g id="Reload"/><g id="Trash"/><g id="Tag"/><g id="Link"/><g id="Like"/><g id="Bad"/><g id="Gallery"/><g id="Add"/><g id="Close"/><g id="Forward"/><g id="Back"/><g id="Buy"/><g id="Mac"/><g id="Laptop"/></svg>