<svg id="Capa_1" enable-background="new 0 0 512 512" height="512" viewBox="0 0 512 512" width="512" xmlns="http://www.w3.org/2000/svg"><g><g fill="#ffbdbc"><path d="m355.718 184.856c16 21.831 25.456 48.734 25.456 77.801 0 72.781-59.28 131.993-132.146 131.993s-132.146-59.212-132.146-131.993 59.28-131.993 132.146-131.993c29.416 0 56.617 9.65 78.598 25.947l38.065-38.021c-31.897-25.82-72.503-41.306-116.663-41.306-102.333 0-185.587 83.158-185.587 185.373s83.254 185.373 185.587 185.373 185.587-83.158 185.587-185.373c0-43.796-15.285-84.093-40.805-115.849z"/><path d="m253.34 258.964c7.527-23.543 19.843-45.232 36.132-63.726-11.827-7.105-25.666-11.194-40.444-11.194-43.398 0-78.704 35.266-78.704 78.614 0 43.347 35.307 78.614 78.704 78.614s78.704-35.266 78.704-78.614c0-14.446-3.922-27.995-10.757-39.64-18.479 16.198-40.134 28.45-63.635 35.946z"/></g><g><path d="m509.067 97.566c2.717-2.714 3.64-6.745 2.374-10.371s-4.496-6.206-8.312-6.641l-40.436-4.595-26.15-26.12-4.6-40.379c-.435-3.813-3.013-7.042-6.636-8.308-3.625-1.27-7.651-.346-10.367 2.364l-39.563 39.518c-1.098 1.097-2.13 2.242-3.094 3.431-37.428-21.326-79.858-32.56-123.255-32.56-66.516 0-129.051 25.873-176.086 72.854-47.037 46.984-72.942 109.453-72.942 175.899s25.905 128.915 72.942 175.898c47.035 46.98 109.57 72.854 176.086 72.854s129.051-25.873 176.086-72.854c47.037-46.983 72.942-109.452 72.942-175.898 0-43.043-11.093-85.149-32.157-122.348 1.25-1.002 2.454-2.078 3.604-3.227zm-53.698 25.367c-5.112 5.107-12.162 7.577-19.354 6.752l-9.797-1.113 32.925-32.887 21.105 2.398zm-136.954 85.048c-13.718 13.702-29.822 24.988-47.351 33.273 8.293-17.499 19.589-33.578 33.302-47.274l124.092-123.949 14.034 14.017zm-73.836 45.602c-.02.02-.04.039-.06.059l-10.671 10.658c-3.907 3.903-3.911 10.235-.008 14.143 1.953 1.955 4.514 2.933 7.075 2.933 2.558 0 5.115-.975 7.067-2.925l10.671-10.659c.021-.021.041-.042.062-.063 27.698-9.239 53.183-24.97 73.835-45.597l21.589-21.564c11.172 18.766 17.035 40.045 17.035 62.091 0 67.268-54.794 121.993-122.146 121.993s-122.146-54.726-122.146-121.993 54.794-121.993 122.146-121.993c22.406 0 43.961 6.01 62.928 17.465l-21.725 21.7c-20.651 20.626-36.401 46.083-45.652 73.752zm169.838-221.275 2.4 21.081-32.945 32.907-1.116-9.801c-.815-7.169 1.646-14.208 6.756-19.312zm63.64 230.35c0 126.134-102.741 228.752-229.028 228.752s-229.029-102.618-229.029-228.752c0-126.135 102.741-228.753 229.028-228.753 40.386 0 79.854 10.571 114.561 30.63-1 4.602-1.254 9.397-.705 14.224v.001l2.915 25.589-39.327 39.282c-23.073-15.048-49.698-22.965-77.444-22.965-78.379 0-142.146 63.698-142.146 141.993s63.767 141.993 142.146 141.993 142.146-63.698 142.146-141.993c0-27.371-7.762-53.728-22.503-76.606l39.453-39.407 25.633 2.912v.001c1.674.189 3.341.283 5 .283 3.055 0 6.075-.319 9.017-.941 19.832 34.503 30.283 73.684 30.283 113.757z" fill="#020288"/></g></g></svg>