<svg height="400pt" viewBox="0 -22 400 400" width="400pt" xmlns="http://www.w3.org/2000/svg"><path d="m50 256.007812v-246.015624c-22.089844 0-40 17.910156-40 40v256.015624c0 22.089844 17.910156 40 40 40h300c22.089844 0 40-17.910156 40-40v-10h-300c-22.089844 0-40-17.910156-40-40zm0 0" fill="none"/><g fill="#000"><path d="m198.410156 99.574219c-17.421875 0-31.59375-14.398438-31.59375-32.105469s14.171875-32.105469 31.59375-32.105469c17.417969 0 31.589844 14.402344 31.589844 32.105469s-14.171875 32.105469-31.589844 32.105469zm0-44.210938c-6.6875-.292969-12.34375 4.890625-12.632812 11.578125-.292969 6.683594 4.890625 12.339844 11.574218 12.632813 6.6875.292969 12.34375-4.890625 12.636719-11.574219.007813-.175781.011719-.351562.011719-.527344.132812-6.542968-5.050781-11.957031-11.589844-12.109375zm0 0"/><path d="m127.953125 99.574219c-17.417969 0-31.589844-14.398438-31.589844-32.105469s14.171875-32.105469 31.589844-32.105469 31.59375 14.398438 31.59375 32.105469-14.171875 32.105469-31.59375 32.105469zm0-44.210938c-6.683594-.292969-12.339844 4.890625-12.632813 11.578125-.289062 6.683594 4.894532 12.339844 11.578126 12.632813 6.6875.292969 12.34375-4.890625 12.636718-11.574219.007813-.175781.011719-.351562.011719-.527344.132813-6.542968-5.050781-11.957031-11.59375-12.109375zm0 0"/><path d="m61.816406 99.574219c-17.417968 0-31.589844-14.398438-31.589844-32.105469s14.171876-32.105469 31.589844-32.105469c17.421875 0 31.59375 14.398438 31.59375 32.105469s-14.171875 32.105469-31.59375 32.105469zm0-44.210938c-6.683594-.289062-12.339844 4.894531-12.628906 11.578125-.292969 6.6875 4.890625 12.339844 11.578125 12.632813 6.683594.292969 12.339844-4.890625 12.632813-11.574219.007812-.175781.011718-.351562.011718-.527344.136719-6.542968-5.050781-11.960937-11.59375-12.109375zm0 0"/></g><path d="m400 50c0-27.613281-22.386719-50-50-50h-300c-27.613281 0-50 22.386719-50 50v256c0 27.613281 22.386719 50 50 50h300c27.613281 0 50-22.386719 50-50zm-350-30h300c16.558594.015625 29.980469 13.433594 30 29.992188v74.007812h-360v-74.007812c.019531-16.558594 13.441406-29.976563 30-29.992188zm300 316h-300c-16.558594-.015625-29.980469-13.433594-30-29.992188v-162.007812h360v162.007812c-.019531 16.558594-13.441406 29.976563-30 29.992188zm0 0" fill="#000"/></svg>